<?xml version="1.0" standalone="no"?><!DOCTYPE svg PUBLIC "-//W3C//DTD SVG 1.1//EN" "http://www.w3.org/Graphics/SVG/1.1/DTD/svg11.dtd"><svg t="1730790826735" class="icon" viewBox="0 0 1024 1024" version="1.1" xmlns="http://www.w3.org/2000/svg" p-id="22879" xmlns:xlink="http://www.w3.org/1999/xlink" width="16" height="16"><path d="M704.537046 536.2834C585.092107 536.2834 487.537281 634.618274 487.537281 754.989521s97.603579 218.706121 216.999765 218.706121c46.705409 0 89.998105-15.210947 125.490316-40.708785l82.782656 79.662461a35.979741 35.979741 0 0 0 35.150939 9.994373 36.467271 36.467271 0 0 0 15.990996-61.575085l-82.831409-79.613709a218.169838 218.169838 0 0 0 40.416267-126.465376c0-120.371247-97.506073-218.706121-216.999765-218.706121z m0 72.885789a142.943903 142.943903 0 0 1 102.381377 42.415142c27.106688 27.399206 42.366389 64.597773 42.317635 103.40519a146.454121 146.454121 0 0 1-42.366388 103.356437 142.992656 142.992656 0 0 1-102.332624 42.415142 142.992656 142.992656 0 0 1-102.381376-42.415142 146.454121 146.454121 0 0 1-42.317636-103.356437 146.454121 146.454121 0 0 1 42.366389-103.356437 142.943903 142.943903 0 0 1 102.332623-42.415142z" fill="#528BC8" p-id="22880"></path><path d="M536.290318 0c10.335644 0 20.23251 3.900243 27.545465 10.969433l253.515789 243.765182c7.361708 7.020437 11.456964 16.576032 11.456964 26.521652v190.819384a321.623781 321.623781 0 0 0-117.007287-22.036372c-172.29323 0-312.019433 134.265862-312.019433 300.026185 0 86.292874 38.709911 168.344235 106.13536 224.995263H126.764812C83.667128 975.060727 48.759954 941.421132 48.759954 900.078557V74.98217C48.759954 33.542089 83.667128 0 126.764812 0z m-19.501215 71.423198v191.111903c0.048753 20.72004 17.551093 37.539838 39.002429 37.491085h198.76613L516.789103 71.374445z" fill="#66CC8F" p-id="22881"></path></svg>