<?xml version="1.0" standalone="no"?><!DOCTYPE svg PUBLIC "-//W3C//DTD SVG 1.1//EN" "http://www.w3.org/Graphics/SVG/1.1/DTD/svg11.dtd"><svg t="1730793241702" class="icon" viewBox="0 0 1024 1024" version="1.1" xmlns="http://www.w3.org/2000/svg" p-id="57728" xmlns:xlink="http://www.w3.org/1999/xlink" width="16" height="16"><path d="M1024 365.714286v512a73.142857 73.142857 0 0 1-73.142857 73.142857H73.142857a73.142857 73.142857 0 0 1-73.142857-73.142857V365.714286h1024z m-73.142857-292.571429a73.142857 73.142857 0 0 1 73.142857 73.142857v146.285715H0V146.285714a73.142857 73.142857 0 0 1 73.142857-73.142857h877.714286zM365.714286 146.285714H73.142857v73.142857h292.571429V146.285714z m292.571428 0H438.857143v73.142857h219.428571V146.285714z m292.571429 0h-219.428572v73.142857h219.428572V146.285714z" fill="#60666E" p-id="57729"></path></svg>