<?xml version="1.0" standalone="no"?><!DOCTYPE svg PUBLIC "-//W3C//DTD SVG 1.1//EN" "http://www.w3.org/Graphics/SVG/1.1/DTD/svg11.dtd"><svg t="1730793052701" class="icon" viewBox="0 0 1024 1024" version="1.1" xmlns="http://www.w3.org/2000/svg" p-id="48535" xmlns:xlink="http://www.w3.org/1999/xlink" width="16" height="16"><path d="M850.176 411.904s74.752 32.512 69.504 200.192l54.016 52.928s57.216-129.792 36.416-241.024c0 0-1.792-104.32-191.232-242.688 0 0-93.888 10.24-86.848-85.504l-74.88-73.6-135.68 133.184 66.24 65.088s163.264 6.72 106.112 138.496L448.832 601.792l-47.04-6.784-279.872 275.2s-19.2 66.816 29.568 107.712c0 0 31.36 37.76 97.28 35.968l274.752-280.384 5.12-46.272 280.064-273.728c0 0.192 15.616-23.68 41.472-1.6z m-530.048 30.72L408.832 529.92 528.64 411.904 436.48 321.28C534.08 102.4 254.08 17.024 254.08 17.024c-52.224-13.824-41.728 25.6-41.728 25.6 109.632 88.896 92.16 117.952 92.16 117.952-14.08 102.72-104.32 142.08-104.32 142.08-90.432 37.44-165.12-87.232-165.12-87.232-29.632-5.12-26.24 27.264-26.24 27.264C81.92 559.104 320.192 442.624 320.192 442.624z m676.672 426.688l-275.2-260.736-121.6 119.68 260.928 272.96s7.36 7.808 15.488 7.808c8 0 12.864-4.608 12.864-4.608l109.696-107.904s4.48-3.584 4.48-12.736c0-9.088-6.656-14.464-6.656-14.464z m-67.52 0.96l-15.104 45.952a15.36 15.36 0 0 1-13.376 9.6h-49.088a15.104 15.104 0 0 1-13.44-9.6l-14.976-45.952a14.464 14.464 0 0 1 5.184-15.488l39.68-28.16a14.784 14.784 0 0 1 16.64 0l39.68 28.16a14.592 14.592 0 0 1 4.8 15.488z" fill="#727A8F" p-id="48536"></path></svg>